<svg width="100%" height="100%" viewBox="0 0 50 50" version="1.1" xmlns="http://www.w3.org/2000/svg" xmlns:xlink="http://www.w3.org/1999/xlink" xml:space="preserve" xmlns:serif="http://www.serif.com/" style="fill-rule:evenodd;clip-rule:evenodd;stroke-linejoin:round;stroke-miterlimit:2;">
    <style>
    path {
      fill: #000;
      fill-rule: nonzero;
    }
    @media (prefers-color-scheme: dark) {
      path {
        fill: #fff;
        fill-rule: nonzero;
      }
    }
    </style>
    <path d="M12.944 9.547c-1.052.15-3.006.601-3.757 1.052-2.856 1.202-5.11 4.058-5.862 7.214-.3 1.503-.15 2.856.451 3.457.301.301.451.301 2.255.301l1.803-.151-.451-1.052c-.3-.751-.451-1.052-.451-2.555.151-1.803.151-1.803.602-3.006.751-1.503 2.254-2.855 3.607-3.607 1.954-.901 4.058-.751 4.96.301.901 1.052.601 2.705-1.052 7.966-2.856 9.318-4.059 14.578-4.059 18.035 0 1.653.151 2.555.602 3.006l.451.451 1.503-.451 1.653-.601.15-1.353c.15-1.803.601-3.156 2.405-7.064 1.353-3.306 5.411-11.573 5.561-11.422l-1.052 3.006c-2.104 6.613-3.156 12.023-2.706 14.428.301 1.203.451 1.353 1.804.902l1.353-.451s-.081-9.644 6.162-24.198l-2.555.301-2.555.451c-2.628 4.897-5.133 9.858-7.515 14.879l1.353-4.358c1.803-5.712 2.555-9.169 2.404-10.822-.451-3.006-3.757-5.26-7.064-4.659Z" transform="matrix(1.4 0 0 1.4 .76417 -10.6887)"/>
</svg>
