<svg version="1.0" xmlns="http://www.w3.org/2000/svg"
 width="300.000000pt" height="210.000000pt" viewBox="0 0 300.000000 210.000000"
 preserveAspectRatio="xMidYMid meet">
 <style>
    path {
      fill: #000;
      fill-rule: nonzero;
    }
    @media (prefers-color-scheme: dark) {
      path {
        fill: #fff;
        fill-rule: nonzero;
      }
    }
    </style>
<g transform="translate(0.000000,210.000000) scale(0.100000,-0.100000)"
fill="#000000" stroke="none">
<path d="M650 2093 c-70 -11 -197 -47 -247 -69 -197 -88 -346 -274 -390 -489
-19 -95 -8 -183 28 -222 21 -22 29 -23 146 -23 68 0 123 4 123 9 0 5 -12 35
-28 67 -25 54 -27 69 -27 175 0 114 0 116 39 194 50 101 143 196 240 245 122
61 269 52 330 -21 55 -65 39 -180 -71 -533 -193 -617 -273 -964 -276 -1200 -1
-102 13 -164 46 -201 l22 -25 100 31 c55 17 105 35 111 40 6 5 14 44 17 87 9
119 38 208 152 473 94 216 363 764 371 756 2 -1 -26 -89 -62 -195 -149 -444
-218 -803 -185 -964 17 -82 26 -86 124 -57 l82 24 5 65 c5 64 43 163 119 309
l28 54 -1 -164 c-1 -179 5 -219 32 -218 9 0 69 17 132 38 l115 37 -4 129 c-2
107 1 146 18 220 12 50 25 96 30 103 5 9 60 -40 182 -161 248 -247 447 -405
592 -472 89 -41 222 -79 239 -69 32 20 204 148 210 158 16 24 -16 34 -130 38
-128 5 -213 28 -342 93 -144 72 -348 221 -510 372 l-74 70 73 18 c99 24 197
74 253 129 55 54 116 153 160 259 32 78 32 79 13 94 -12 9 -31 12 -49 9 -16
-3 -80 -6 -143 -6 -83 0 -114 -3 -117 -12 -16 -68 -56 -166 -89 -223 -50 -84
-161 -201 -200 -211 -50 -12 -58 -41 92 366 131 359 232 663 222 673 -11 11
-293 -39 -314 -57 -8 -6 -83 -207 -167 -446 -84 -239 -174 -482 -200 -540
-103 -231 -164 -360 -167 -356 -7 7 43 202 85 336 22 69 76 227 120 351 171
479 213 612 200 624 -10 9 -49 6 -168 -16 -85 -16 -161 -31 -168 -34 -11 -4
-390 -762 -469 -938 -15 -33 -28 -56 -30 -51 -2 5 37 136 86 291 121 380 171
612 158 726 -24 198 -247 347 -467 310z"/>
</g>
</svg>
